# Blender v2.78 (sub 0) OBJ File: 'zierfisch.blend'
# www.blender.org
mtllib zierfisch.mtl
o fish_Plane.001
v -0.268723 -0.035288 -0.116974
v -0.816233 0.042444 -0.017201
v 0.262160 -0.054363 -0.171868
v -0.678153 0.038073 -0.030005
v 0.616218 -0.060835 -0.169015
v -0.532968 0.039841 -0.050078
v 0.935807 -0.008277 -0.061529
v -0.687961 -0.027067 -0.029684
v 0.251629 -0.168005 -0.117089
v -0.532336 -0.008571 -0.052508
v -0.835207 -0.060628 -0.019555
v -0.270181 -0.107101 -0.090525
v 0.951378 -0.038937 -0.052297
v 0.603668 -0.157073 -0.123538
v -0.244335 0.131717 -0.078483
v -0.800257 0.165300 -0.007591
v 0.306127 0.140600 -0.106167
v -0.666074 0.103633 -0.018102
v 0.663948 0.095681 -0.117601
v -0.532983 0.086097 -0.036392
v 0.950067 0.041748 -0.047835
v -0.075195 0.192577 -0.007714
v 0.177186 0.195273 -0.007705
v -0.413375 0.126661 -0.013853
v -0.524034 0.104012 -0.013932
v -0.430237 -0.066624 -0.009275
v -0.014742 -0.121492 -0.071107
v -0.124215 -0.201631 -0.088519
v -0.190119 -0.219627 -0.085319
v -0.149183 -0.312550 -0.132688
v -0.054914 -0.249604 -0.121047
v 0.016320 -0.129699 -0.074943
v -0.015766 -0.126557 -0.063309
v -0.125239 -0.206697 -0.080721
v -0.055939 -0.254669 -0.113248
v 0.015296 -0.134765 -0.067145
v 0.951978 0.071490 0.000249
v 0.992292 -0.000438 -0.000002
v 0.696448 0.155591 0.000543
v 0.958570 -0.052499 -0.000183
v 0.641718 -0.166500 -0.000581
v 0.268607 -0.207145 -0.000723
v -0.259942 -0.158704 -0.000554
v -0.536219 -0.048696 -0.000170
v -0.698534 -0.081545 -0.000285
v -0.855052 -0.168499 -0.000588
v -0.970991 -0.201348 -0.000703
v -0.959397 -0.085410 -0.000298
v -0.914954 0.044055 0.000154
v -0.940074 0.208719 0.000729
v -0.940074 0.279797 0.000977
v -0.783556 0.219895 0.000768
v -0.657955 0.127144 0.000444
v -0.536219 0.134946 0.000471
v -0.176821 0.195260 0.000682
v 0.354133 0.206696 0.000721
v -0.268723 -0.036104 0.116725
v -0.816233 0.042323 0.017497
v 0.262160 -0.055562 0.171484
v -0.678153 0.037863 0.030271
v 0.616218 -0.062014 0.168586
v -0.532968 0.039490 0.050355
v 0.953126 -0.008706 0.061469
v -0.687961 -0.027273 0.029494
v 0.251629 -0.168818 0.115914
v -0.532336 -0.008937 0.052447
v -0.835207 -0.060763 0.019131
v -0.270181 -0.107730 0.089775
v 0.967039 -0.039301 0.052023
v 0.603668 -0.157932 0.122438
v -0.244335 0.131166 0.079400
v -0.800257 0.165243 0.008745
v 0.306127 0.139855 0.107146
v -0.666074 0.103504 0.018825
v 0.663948 0.094858 0.118266
v -0.532983 0.085841 0.036993
v 0.950067 0.041413 0.048125
v -0.006351 0.391528 0.001367
v -0.167098 0.282035 0.000985
v -0.075195 0.192519 0.009059
v 0.177186 0.195215 0.009068
v -0.413375 0.126561 0.014737
v -0.513033 0.200151 0.000699
v -0.557685 0.192386 0.000672
v -0.557685 0.158735 0.000554
v -0.524034 0.103912 0.014658
v -0.430237 -0.066687 0.008810
v -0.583570 -0.106130 -0.000370
v -0.481323 -0.297033 -0.001037
v -0.293008 -0.118426 -0.000413
v -0.014742 -0.121985 0.070257
v -0.124215 -0.202245 0.087109
v -0.190119 -0.220218 0.083783
v -0.149183 -0.313468 0.130503
v -0.054914 -0.250443 0.119301
v 0.016320 -0.130219 0.074036
v -0.459815 -0.061249 -0.000214
v -0.015766 -0.126996 0.062424
v -0.125239 -0.207255 0.079276
v -0.055939 -0.255453 0.111468
v 0.015296 -0.135230 0.066202
v 0.179134 0.190826 0.000666
v -0.076160 0.197621 0.000690
v -0.549810 0.108002 0.000377
v -0.406346 0.155770 0.000544
vt 0.0678 0.9785
vt 0.0221 0.9537
vt 0.0652 0.9469
vt 0.0473 0.7307
vt 0.0359 0.9182
vt 0.0073 0.9155
vt 0.2014 0.8731
vt 0.4046 0.8302
vt 0.2232 0.9510
vt 0.3708 0.7536
vt 0.6183 0.5757
vt 0.5933 0.5044
vt 0.7323 0.3750
vt 0.7007 0.3517
vt 0.7805 0.3137
vt 0.8583 0.2598
vt 0.8776 0.2911
vt 0.9718 0.2433
vt 0.0513 0.9254
vt 0.7434 0.2612
vt 0.6532 0.3099
vt 0.7177 0.2271
vt 0.8078 0.1989
vt 0.7695 0.1447
vt 0.5251 0.4256
vt 0.2500 0.5920
vt 0.4940 0.3917
vt 0.8525 0.1543
vt 0.8146 0.0779
vt 0.6770 0.3312
vt 0.1885 0.5453
vt 0.1234 0.7452
vt 0.6288 0.2744
vt 0.6958 0.1932
vt 0.4514 0.3425
vt 0.7688 0.0213
vt 0.7307 0.0862
vt 0.2999 0.6490
vt 0.1645 0.7896
vt 0.7698 0.2967
vt 0.9388 0.2131
vt 0.6242 0.7730
vt 0.5630 0.6627
vt 0.6398 0.6576
vt 0.7294 0.3981
vt 0.7686 0.4024
vt 0.7716 0.4388
vt 0.6656 0.2001
vt 0.6020 0.2707
vt 0.5514 0.1386
vt 0.3821 0.3604
vt 0.3823 0.2877
vt 0.4346 0.3233
vt 0.6197 0.2642
vt 0.5162 0.2900
vt 0.3448 0.4078
vt 0.3224 0.4000
vt 0.3224 0.4000
vt 0.3392 0.3369
vt 0.3392 0.3369
vt 0.3448 0.4078
vt 0.3821 0.3604
vt 0.4633 0.7763
vt 0.4608 0.7816
vt 0.5655 0.6574
vt 0.6997 0.4589
vt 0.7122 0.4743
vt 0.7425 0.3861
vt 0.0652 0.9469
vt 0.0359 0.9182
vt 0.2014 0.8731
vt 0.3708 0.7536
vt 0.5933 0.5044
vt 0.7007 0.3517
vt 0.8583 0.2598
vt 0.7698 0.2967
vt 0.0513 0.9254
vt 0.1645 0.7896
vt 0.7434 0.2612
vt 0.6532 0.3099
vt 0.6770 0.3312
vt 0.8078 0.1989
vt 0.7177 0.2271
vt 0.5251 0.4256
vt 0.2500 0.5920
vt 0.2999 0.6490
vt 0.7695 0.1447
vt 0.1234 0.7452
vt 0.4940 0.3917
vt 0.5630 0.6627
vt 0.7294 0.3981
vt 0.6020 0.2707
vt 0.3821 0.3604
vt 0.3823 0.2877
vt 0.3392 0.3369
vt 0.3224 0.4000
vt 0.3448 0.4078
vt 0.3224 0.4000
vt 0.3448 0.4078
vt 0.3392 0.3369
vt 0.4346 0.3233
vt 0.3821 0.3604
vt 0.4633 0.7763
vt 0.6997 0.4589
vt 0.7844 0.4149
vn 0.5858 0.8104 0.0028
vn 0.9975 0.0210 -0.0672
vn 0.5718 0.4358 -0.6951
vn 0.2496 -0.9683 -0.0069
vn 0.6022 -0.4498 -0.6596
vn 0.5936 -0.8005 -0.0818
vn 0.1842 0.5879 -0.7877
vn 0.0604 0.9981 0.0035
vn 0.2400 0.9707 0.0034
vn 0.0035 0.6246 -0.7809
vn -0.0847 0.9964 0.0034
vn -0.1245 0.5672 -0.8141
vn -0.1899 0.9818 0.0034
vn -0.1356 0.4315 -0.8918
vn 0.1321 0.9912 0.0034
vn -0.0020 0.1009 -0.9949
vn 0.4665 0.8845 0.0031
vn -0.6343 0.7730 0.0027
vn 0.4554 0.0269 -0.8898
vn -0.1151 0.1060 -0.9877
vn -0.2138 -0.3641 -0.9065
vn -0.0245 -0.2620 -0.9647
vn -0.1189 0.0737 -0.9901
vn -0.0465 -0.0725 -0.9963
vn -0.1619 -0.0640 -0.9847
vn -0.0515 -0.7496 -0.6599
vn -0.2165 -0.6407 -0.7366
vn -0.9482 0.3175 0.0011
vn -0.9823 0.1870 0.0006
vn -0.1628 0.1667 -0.9724
vn -0.0181 -0.9998 -0.0035
vn 0.1893 -0.7855 -0.5892
vn -0.2135 -0.9769 -0.0034
vn 0.1801 -0.9836 -0.0034
vn -0.2387 -0.9711 -0.0034
vn -0.6581 -0.7529 -0.0026
vn 0.3467 -0.9380 -0.0033
vn -0.0432 -0.0628 -0.9971
vn 0.1620 -0.1005 -0.9816
vn -0.0122 0.3839 -0.9232
vn -0.9983 -0.0587 -0.0002
vn -0.0155 0.9998 0.0035
vn -0.3282 -0.2777 -0.9028
vn -0.9610 0.2764 0.0009
vn -0.2069 0.0892 -0.9743
vn -0.7106 0.3689 -0.5991
vn -0.1971 0.7839 -0.5888
vn -0.9824 0.1870 0.0006
vn -0.0253 0.0486 -0.9985
vn -0.1762 -0.9843 -0.0034
vn -0.4078 0.8232 -0.3948
vn -0.4341 -0.8363 -0.3348
vn -0.9555 0.2198 0.1967
vn -0.3409 0.9401 0.0033
vn 0.6881 -0.7255 -0.0025
vn -0.1316 0.9683 -0.2122
vn 0.7470 -0.0068 0.6648
vn 0.7757 0.5374 -0.3309
vn 0.4952 -0.1815 -0.8496
vn 0.5878 -0.7339 0.3403
vn -0.1379 0.4193 0.8973
vn -0.1616 0.1721 0.9717
vn 0.7078 0.6720 -0.2180
vn 0.7344 0.6787 0.0023
vn -0.6803 -0.7329 -0.0025
vn 0.0849 0.3030 -0.9492
vn 0.3841 0.9233 0.0032
vn -0.9882 -0.1534 -0.0005
vn 0.5555 0.5013 0.6634
vn 0.6814 -0.4598 0.5694
vn 0.1802 0.5854 0.7904
vn 0.0035 0.6191 0.7853
vn -0.1245 0.5615 0.8180
vn -0.1356 0.4252 0.8948
vn -0.0020 0.0940 0.9955
vn -0.0122 0.3775 0.9259
vn 0.5305 0.0897 0.8429
vn 0.1545 -0.1060 0.9823
vn -0.1151 0.0991 0.9884
vn -0.2138 -0.3705 0.9039
vn -0.1628 0.1599 0.9736
vn -0.1189 0.0668 0.9906
vn -0.0245 -0.2687 0.9629
vn -0.1619 -0.0709 0.9843
vn -0.0515 -0.7542 0.6546
vn -0.0432 -0.0698 0.9966
vn -0.0465 -0.0795 0.9957
vn 0.1831 -0.7909 0.5838
vn -0.2165 -0.6458 0.7321
vn -0.3282 -0.2840 0.9009
vn -0.2069 0.0824 0.9749
vn -0.0253 0.0416 0.9988
vn -0.4078 0.8205 0.4006
vn -0.4341 -0.8386 0.3289
vn 0.4952 -0.1874 0.8483
vn 0.7470 -0.0021 -0.6648
vn -0.1316 0.9668 0.2190
vn 0.7757 0.5351 0.3347
vn -0.1379 0.4255 -0.8943
vn 0.5878 -0.7315 -0.3455
vn -0.9555 0.2212 -0.1952
vn -0.1616 0.1788 -0.9705
vn 0.7078 0.6704 0.2227
vn 0.0849 0.2964 0.9513
vn 0.0000 0.0035 -1.0000
usemtl Material.001
s 1
f 37/1/1 38/2/2 21/3/3
f 41/4/4 13/5/5 40/6/6
f 19/7/7 56/8/8 39/9/9
f 17/10/10 55/11/11 56/8/8
f 15/12/12 54/13/13 55/11/11
f 20/14/14 53/15/15 54/13/13
f 53/15/15 16/16/16 52/17/17
f 52/17/17 16/16/16 51/18/18
f 7/19/19 19/7/7 21/3/3
f 4/20/20 10/21/21 8/22/22
f 7/19/19 38/2/2 13/5/5
f 2/23/23 8/22/22 11/24/24
f 1/25/25 9/26/26 12/27/27
f 49/28/28 11/24/24 48/29/29
f 1/25/25 10/21/21 6/30/30
f 42/31/31 14/32/32 41/4/4
f 8/22/22 44/33/33 45/34/34
f 9/26/26 43/35/35 12/27/27
f 48/29/29 11/24/24 47/36/36
f 12/27/27 44/33/33 10/21/21
f 11/24/24 45/34/34 46/37/37
f 14/32/32 7/19/19 13/5/5
f 14/32/32 3/38/38 5/39/39
f 13/5/5 38/2/2 40/6/6
f 15/12/12 6/30/30 20/14/14
f 21/3/3 39/9/9 37/1/1
f 18/40/40 6/30/30 4/20/20
f 17/10/10 5/39/39 3/38/38
f 18/40/40 2/23/23 16/16/16
f 15/12/12 3/38/38 1/25/25
f 21/3/3 38/2/2 7/19/19
f 16/16/16 49/28/28 50/41/41
f 78/42/42 22/43/43 79/44/44
f 25/45/45 85/46/46 83/47/47
f 88/48/48 26/49/49 89/50/50
f 28/51/51 30/52/52 29/53/53
f 26/49/49 88/48/48 97/54/54
f 26/49/49 90/55/55 89/50/50
f 27/56/56 36/57/57 32/58/58
f 31/59/59 36/57/57 35/60/60
f 28/51/51 33/61/61 27/56/56
f 31/59/59 35/60/60 30/52/52
f 29/53/53 34/62/62 28/51/51
f 30/52/52 34/62/62 29/53/53
f 33/61/61 35/60/60 36/57/57
f 23/63/63 78/42/42 102/64/64
f 22/43/43 103/65/65 79/44/44
f 51/18/18 16/16/16 50/41/41
f 47/36/36 11/24/24 46/37/37
f 24/66/66 83/47/47 105/67/67
f 25/45/45 104/68/68 85/46/46
f 31/59/59 27/56/56 32/58/58
f 37/1/1 77/69/69 38/2/2
f 69/70/70 41/4/4 40/6/6
f 56/8/8 75/71/71 39/9/9
f 55/11/11 73/72/72 56/8/8
f 54/13/13 71/73/73 55/11/11
f 53/15/15 76/74/74 54/13/13
f 53/15/15 72/75/75 74/76/76
f 52/17/17 51/18/18 72/75/75
f 63/77/77 75/71/71 61/78/78
f 60/79/79 66/80/80 62/81/81
f 63/77/77 69/70/70 38/2/2
f 58/82/82 64/83/83 60/79/79
f 57/84/84 65/85/85 59/86/86
f 49/28/28 67/87/87 58/82/82
f 66/80/80 57/84/84 62/81/81
f 70/88/88 42/31/31 41/4/4
f 64/83/83 44/33/33 66/80/80
f 43/35/35 65/85/85 68/89/89
f 48/29/29 47/36/36 67/87/87
f 44/33/33 68/89/89 66/80/80
f 67/87/87 45/34/34 64/83/83
f 63/77/77 70/88/88 69/70/70
f 70/88/88 59/86/86 65/85/85
f 69/70/70 40/6/6 38/2/2
f 62/81/81 71/73/73 76/74/74
f 77/69/69 39/9/9 75/71/71
f 74/76/76 62/81/81 76/74/74
f 73/72/72 61/78/78 75/71/71
f 58/82/82 74/76/76 72/75/75
f 71/73/73 59/86/86 73/72/72
f 77/69/69 63/77/77 38/2/2
f 49/28/28 72/75/75 50/41/41
f 80/90/90 78/42/42 79/44/44
f 85/46/46 86/91/91 83/47/47
f 88/48/48 89/50/50 87/92/92
f 92/93/93 94/94/94 95/95/95
f 87/92/92 97/54/54 88/48/48
f 87/92/92 89/50/50 90/55/55
f 101/96/96 91/97/97 96/98/98
f 95/95/95 101/96/96 96/98/98
f 98/99/99 92/93/93 91/97/97
f 95/95/95 94/94/94 100/100/100
f 93/101/101 92/93/93 99/102/102
f 99/102/102 94/94/94 93/101/101
f 98/99/99 100/100/100 99/102/102
f 81/103/103 102/64/64 78/42/42
f 80/90/90 79/44/44 103/65/65
f 51/18/18 50/41/41 72/75/75
f 47/36/36 46/37/37 67/87/87
f 82/104/104 105/67/67 83/47/47
f 86/91/91 85/46/46 104/68/68
f 95/95/95 91/97/97 92/93/93
f 41/4/4 14/32/32 13/5/5
f 19/7/7 17/10/10 56/8/8
f 17/10/10 15/12/12 55/11/11
f 15/12/12 20/14/14 54/13/13
f 20/14/14 18/40/40 53/15/15
f 53/15/15 18/40/40 16/16/16
f 7/19/19 5/39/39 19/7/7
f 4/20/20 6/30/30 10/21/21
f 2/23/23 4/20/20 8/22/22
f 1/25/25 3/38/38 9/26/26
f 49/28/28 2/23/23 11/24/24
f 1/25/25 12/27/27 10/21/21
f 42/31/31 9/26/26 14/32/32
f 8/22/22 10/21/21 44/33/33
f 9/26/26 42/31/31 43/35/35
f 12/27/27 43/35/35 44/33/33
f 11/24/24 8/22/22 45/34/34
f 14/32/32 5/39/39 7/19/19
f 14/32/32 9/26/26 3/38/38
f 15/12/12 1/25/25 6/30/30
f 21/3/3 19/7/7 39/9/9
f 18/40/40 20/14/14 6/30/30
f 17/10/10 19/7/7 5/39/39
f 18/40/40 4/20/20 2/23/23
f 15/12/12 17/10/10 3/38/38
f 16/16/16 2/23/23 49/28/28
f 78/42/42 23/63/63 22/43/43
f 84/105/105 83/47/47 85/46/46
f 24/66/66 25/45/45 83/47/47
f 28/51/51 31/59/59 30/52/52
f 27/56/56 33/61/61 36/57/57
f 31/59/59 32/58/58 36/57/57
f 28/51/51 34/62/62 33/61/61
f 30/52/52 35/60/60 34/62/62
f 33/61/61 34/62/62 35/60/60
f 31/59/59 28/51/51 27/56/56
f 69/70/70 70/88/88 41/4/4
f 56/8/8 73/72/72 75/71/71
f 55/11/11 71/73/73 73/72/72
f 54/13/13 76/74/74 71/73/73
f 53/15/15 74/76/76 76/74/74
f 53/15/15 52/17/17 72/75/75
f 63/77/77 77/69/69 75/71/71
f 60/79/79 64/83/83 66/80/80
f 58/82/82 67/87/87 64/83/83
f 57/84/84 68/89/89 65/85/85
f 49/28/28 48/29/29 67/87/87
f 66/80/80 68/89/89 57/84/84
f 70/88/88 65/85/85 42/31/31
f 64/83/83 45/34/34 44/33/33
f 43/35/35 42/31/31 65/85/85
f 44/33/33 43/35/35 68/89/89
f 67/87/87 46/37/37 45/34/34
f 63/77/77 61/78/78 70/88/88
f 70/88/88 61/78/78 59/86/86
f 62/81/81 57/84/84 71/73/73
f 77/69/69 37/1/1 39/9/9
f 74/76/76 60/79/79 62/81/81
f 73/72/72 59/86/86 61/78/78
f 58/82/82 60/79/79 74/76/76
f 71/73/73 57/84/84 59/86/86
f 49/28/28 58/82/82 72/75/75
f 80/90/90 81/103/103 78/42/42
f 82/104/104 83/47/47 86/91/91
f 92/93/93 93/101/101 94/94/94
f 101/96/96 98/99/99 91/97/97
f 95/95/95 100/100/100 101/96/96
f 98/99/99 99/102/102 92/93/93
f 99/102/102 100/100/100 94/94/94
f 98/99/99 101/96/96 100/100/100
f 95/95/95 96/98/98 91/97/97
