# Blender v2.78 (sub 0) OBJ File: ''
# www.blender.org
mtllib zierfisch.mtl
o fish_Plane.000
v -0.000044 0.012507 -0.007052
v -0.000000 -0.000077 0.000000
v 0.008368 0.007304 -0.007386
v 0.000102 -0.029128 -0.061330
v 0.009149 -0.006812 -0.007157
v 0.000032 -0.009184 -0.005899
v 0.020573 0.016739 -0.057441
v -0.000126 0.036160 -0.111640
v -0.000095 0.027219 -0.051755
v 0.018573 0.024597 -0.120039
v -0.000119 0.034159 -0.204526
v 0.013730 0.023043 -0.216337
v -0.000082 0.023608 -0.267400
v 0.006366 0.015062 -0.266834
v -0.000078 0.022243 -0.288697
v 0.001328 0.028918 -0.313592
v -0.000134 0.038469 -0.310670
v -0.000171 0.048948 -0.338051
v 0.010764 -0.001448 -0.009881
v 0.005249 0.006661 -0.292230
v 0.009186 -0.001499 -0.266721
v 0.005193 -0.004735 -0.293946
v 0.003009 0.007425 -0.316386
v 0.003421 -0.010606 -0.319706
v 0.020464 -0.006173 -0.220604
v 0.020484 -0.029391 -0.129573
v 0.015837 -0.018736 -0.220859
v -0.000027 0.007707 -0.333657
v 0.000052 -0.014942 -0.341432
v 0.008761 0.006970 -0.266831
v 0.000126 -0.036238 -0.126602
v 0.021612 -0.027479 -0.067986
v 0.000030 -0.008519 -0.267400
v 0.000050 -0.014266 -0.295796
v 0.000097 -0.027764 -0.219068
v 0.000123 -0.035224 -0.343460
v 0.000103 -0.029478 -0.323177
v 0.030067 -0.009510 -0.127730
v 0.029568 -0.010643 -0.065791
v 0.003167 0.018130 -0.290117
v -0.000128 0.036514 -0.338051
v -0.000239 0.068495 -0.174704
v 0.001350 0.033690 -0.186748
v -0.000172 0.049340 -0.202825
v 0.002437 0.018196 -0.265269
v -0.000097 0.027769 -0.271155
v -0.000122 0.035015 -0.263344
v 0.000065 -0.018567 -0.275684
v 0.001623 -0.011655 -0.248859
v 0.000181 -0.051964 -0.257797
v 0.015486 -0.035274 -0.195323
v 0.023213 -0.054678 -0.199691
v 0.014926 -0.038422 -0.206853
v 0.000037 -0.010715 -0.254034
v 0.000072 -0.020718 -0.224852
v 0.012440 -0.021254 -0.176172
v 0.011746 -0.023576 -0.170917
v 0.013111 -0.022690 -0.170738
v 0.021176 -0.043666 -0.183200
v 0.019812 -0.044552 -0.183379
v 0.011075 -0.022140 -0.176351
v 0.014121 -0.036160 -0.195503
v 0.001348 0.034161 -0.142596
v -0.000117 0.033383 -0.142255
v -0.000121 0.034572 -0.186917
v 0.002423 0.022158 -0.245910
v -0.000095 0.027251 -0.244680
v -0.000066 0.018894 -0.269778
v -0.008419 0.007245 -0.007386
v -0.009101 -0.006875 -0.004417
v -0.020690 0.016595 -0.057441
v -0.018744 0.024467 -0.120039
v -0.013890 0.022946 -0.216337
v -0.006472 0.015017 -0.266834
v -0.001530 0.028908 -0.313592
v -0.003293 0.018107 -0.290117
v -0.010754 -0.001523 -0.006851
v -0.029493 -0.010849 -0.065791
v -0.005296 0.006624 -0.292230
v -0.009175 -0.001563 -0.266721
v -0.008809 0.006908 -0.266831
v -0.003061 0.007404 -0.316386
v -0.005160 -0.004771 -0.293946
v -0.020420 -0.006316 -0.220604
v -0.020278 -0.029533 -0.129573
v -0.030000 -0.009720 -0.127730
v -0.003347 -0.010630 -0.319706
v -0.021420 -0.027629 -0.067986
v -0.015705 -0.018847 -0.220859
v -0.001585 0.033680 -0.186748
v -0.002564 0.018179 -0.265269
v -0.001541 -0.011666 -0.248859
v -0.015239 -0.035381 -0.195323
v -0.022830 -0.054839 -0.199691
v -0.020871 -0.043813 -0.183200
v -0.011582 -0.023657 -0.170917
v -0.012291 -0.021340 -0.176172
v -0.012952 -0.022781 -0.170738
v -0.010921 -0.022217 -0.176351
v -0.019500 -0.044689 -0.183379
v -0.014657 -0.038525 -0.206853
v -0.013869 -0.036258 -0.195503
v -0.001586 0.034151 -0.142596
v -0.002578 0.022141 -0.245910
v -0.000118 0.033656 -0.271155
vt 0.0678 0.9785
vt 0.0221 0.9537
vt 0.0652 0.9469
vt 0.0473 0.7307
vt 0.0359 0.9182
vt 0.0073 0.9155
vt 0.2014 0.8731
vt 0.4046 0.8302
vt 0.2232 0.9510
vt 0.3708 0.7536
vt 0.6183 0.5757
vt 0.5933 0.5044
vt 0.7323 0.3750
vt 0.7007 0.3517
vt 0.7805 0.3137
vt 0.8583 0.2598
vt 0.8776 0.2911
vt 0.9718 0.2433
vt 0.0513 0.9254
vt 0.7434 0.2612
vt 0.6532 0.3099
vt 0.7177 0.2271
vt 0.8078 0.1989
vt 0.7695 0.1447
vt 0.5251 0.4256
vt 0.2500 0.5920
vt 0.4940 0.3917
vt 0.8525 0.1543
vt 0.8146 0.0779
vt 0.6770 0.3312
vt 0.1885 0.5453
vt 0.1234 0.7452
vt 0.6288 0.2744
vt 0.6958 0.1932
vt 0.4514 0.3425
vt 0.7688 0.0213
vt 0.7307 0.0862
vt 0.2999 0.6490
vt 0.1645 0.7896
vt 0.7698 0.2967
vt 0.9388 0.2131
vt 0.6242 0.7730
vt 0.5630 0.6627
vt 0.6398 0.6576
vt 0.7294 0.3981
vt 0.7686 0.4024
vt 0.7716 0.4388
vt 0.6656 0.2001
vt 0.6020 0.2707
vt 0.5514 0.1386
vt 0.3821 0.3604
vt 0.3823 0.2877
vt 0.4346 0.3233
vt 0.6197 0.2642
vt 0.5162 0.2900
vt 0.3448 0.4078
vt 0.3224 0.4000
vt 0.3224 0.4000
vt 0.3392 0.3369
vt 0.3392 0.3369
vt 0.3448 0.4078
vt 0.3821 0.3604
vt 0.4633 0.7763
vt 0.4608 0.7816
vt 0.5655 0.6574
vt 0.6997 0.4589
vt 0.7122 0.4743
vt 0.7425 0.3861
vt 0.0652 0.9469
vt 0.0359 0.9182
vt 0.2014 0.8731
vt 0.3708 0.7536
vt 0.5933 0.5044
vt 0.7007 0.3517
vt 0.8583 0.2598
vt 0.7698 0.2967
vt 0.0513 0.9254
vt 0.1645 0.7896
vt 0.7434 0.2612
vt 0.6532 0.3099
vt 0.6770 0.3312
vt 0.8078 0.1989
vt 0.7177 0.2271
vt 0.5251 0.4256
vt 0.2500 0.5920
vt 0.2999 0.6490
vt 0.7695 0.1447
vt 0.1234 0.7452
vt 0.4940 0.3917
vt 0.5630 0.6627
vt 0.7294 0.3981
vt 0.6020 0.2707
vt 0.3821 0.3604
vt 0.3823 0.2877
vt 0.3392 0.3369
vt 0.3224 0.4000
vt 0.3448 0.4078
vt 0.3224 0.4000
vt 0.3448 0.4078
vt 0.3392 0.3369
vt 0.4346 0.3233
vt 0.3821 0.3604
vt 0.4633 0.7763
vt 0.6997 0.4589
vt 0.7844 0.4149
vn -0.0029 0.8104 0.5858
vn 0.0672 0.0209 0.9975
vn 0.6950 0.4358 0.5719
vn 0.0069 -0.9683 0.2496
vn 0.6596 -0.4498 0.6022
vn 0.0818 -0.8005 0.5937
vn 0.7877 0.5879 0.1842
vn -0.0035 0.9982 0.0604
vn -0.0034 0.9708 0.2400
vn 0.7809 0.6246 0.0035
vn -0.0035 0.9964 -0.0847
vn 0.8141 0.5672 -0.1245
vn -0.0034 0.9818 -0.1899
vn 0.8919 0.4315 -0.1356
vn -0.0036 0.9912 0.1321
vn 0.9949 0.1009 -0.0021
vn -0.0030 0.8845 0.4665
vn -0.0027 0.7731 -0.6343
vn 0.8899 0.0270 0.4555
vn 0.9877 0.1060 -0.1151
vn 0.9065 -0.3641 -0.2138
vn 0.9648 -0.2620 -0.0245
vn 0.9902 0.0737 -0.1189
vn 0.9963 -0.0725 -0.0466
vn 0.9847 -0.0640 -0.1619
vn 0.6599 -0.7496 -0.0515
vn 0.7366 -0.6407 -0.2165
vn -0.0011 0.3175 -0.9483
vn -0.0007 0.1870 -0.9824
vn 0.9725 0.1668 -0.1628
vn 0.0035 -0.9998 -0.0181
vn 0.5892 -0.7855 0.1893
vn 0.0034 -0.9769 -0.2136
vn 0.0035 -0.9836 0.1801
vn 0.0034 -0.9711 -0.2388
vn 0.0026 -0.7529 -0.6581
vn 0.0033 -0.9380 0.3467
vn 0.9971 -0.0629 -0.0432
vn 0.9817 -0.1005 0.1620
vn 0.9233 0.3840 -0.0122
vn 0.0002 -0.0587 -0.9983
vn -0.0035 0.9999 -0.0155
vn 0.9028 -0.2778 -0.3283
vn -0.0010 0.2764 -0.9610
vn 0.9743 0.0892 -0.2069
vn 0.5991 0.3689 -0.7106
vn 0.5888 0.7839 -0.1971
vn -0.0006 0.1870 -0.9824
vn 0.9985 0.0486 -0.0254
vn 0.0034 -0.9843 -0.1762
vn 0.3951 0.8232 -0.4078
vn 0.3348 -0.8363 -0.4341
vn -0.1967 0.2198 -0.9555
vn -0.0036 0.9401 -0.3410
vn 0.0025 -0.7256 0.6882
vn 0.2124 0.9683 -0.1316
vn -0.6648 -0.0073 0.7470
vn 0.3311 0.5373 0.7757
vn 0.8496 -0.1815 0.4952
vn -0.3403 -0.7339 0.5878
vn -0.8973 0.4194 -0.1379
vn -0.9717 0.1723 -0.1617
vn 0.2182 0.6719 0.7077
vn -0.0023 0.6787 0.7344
vn 0.0026 -0.7329 -0.6804
vn 0.9492 0.3030 0.0849
vn -0.0031 0.9233 0.3841
vn 0.0006 -0.1533 -0.9882
vn -0.6634 0.5013 0.5555
vn -0.5693 -0.4598 0.6815
vn -0.7904 0.5854 0.1803
vn -0.7853 0.6191 0.0035
vn -0.8180 0.5615 -0.1245
vn -0.8949 0.4252 -0.1356
vn -0.9956 0.0940 -0.0021
vn -0.9259 0.3775 -0.0122
vn -0.8429 0.0897 0.5305
vn -0.9823 -0.1060 0.1545
vn -0.9884 0.0992 -0.1151
vn -0.9039 -0.3705 -0.2138
vn -0.9736 0.1599 -0.1628
vn -0.9907 0.0668 -0.1189
vn -0.9629 -0.2688 -0.0245
vn -0.9843 -0.0709 -0.1619
vn -0.6546 -0.7542 -0.0515
vn -0.9966 -0.0698 -0.0432
vn -0.9957 -0.0795 -0.0466
vn -0.5838 -0.7910 0.1831
vn -0.7321 -0.6458 -0.2165
vn -0.9009 -0.2840 -0.3282
vn -0.9749 0.0824 -0.2069
vn -0.9988 0.0416 -0.0254
vn -0.4006 0.8205 -0.4079
vn -0.3289 -0.8386 -0.4341
vn -0.8483 -0.1875 0.4952
vn 0.6648 -0.0021 0.7470
vn -0.2188 0.9668 -0.1316
vn -0.3347 0.5350 0.7757
vn 0.8945 0.4254 -0.1379
vn 0.3456 -0.7315 0.5878
vn 0.1952 0.2212 -0.9555
vn 0.9705 0.1788 -0.1615
vn -0.2225 0.6704 0.7078
vn -0.9513 0.2964 0.0849
vn 1.0000 0.0036 -0.0001
vn 0.5888 0.7839 -0.1972
usemtl Material.000
s 1
f 1/1/1 2/2/2 3/3/3
f 4/4/4 5/5/5 6/6/6
f 7/7/7 8/8/8 9/9/9
f 10/10/10 11/11/11 8/8/8
f 12/12/12 13/13/13 11/11/11
f 14/14/14 15/15/15 13/13/13
f 15/15/15 16/16/16 17/17/17
f 17/17/17 16/16/16 18/18/18
f 19/19/19 7/7/7 3/3/3
f 20/20/20 21/21/21 22/22/22
f 19/19/19 2/2/2 5/5/5
f 23/23/23 22/22/22 24/24/24
f 25/25/25 26/26/26 27/27/27
f 28/28/28 24/24/24 29/29/29
f 25/25/25 21/21/21 30/30/30
f 31/31/31 32/32/32 4/4/4
f 22/22/22 33/33/33 34/34/34
f 26/26/26 35/35/35 27/27/27
f 29/29/29 24/24/24 36/36/36
f 27/27/27 33/33/33 21/21/21
f 24/24/24 34/34/34 37/37/37
f 32/32/32 19/19/19 5/5/5
f 32/32/32 38/38/38 39/39/39
f 5/5/5 2/2/2 6/6/6
f 12/12/12 30/30/30 14/14/14
f 3/3/3 9/9/9 1/1/1
f 40/40/40 30/30/30 20/20/20
f 10/10/10 39/39/39 38/38/38
f 40/40/40 23/23/23 16/16/16
f 12/12/12 38/38/38 25/25/25
f 3/3/3 2/2/2 19/19/19
f 16/16/16 28/28/28 41/41/41
f 42/42/42 43/43/43 44/44/44
f 45/45/45 46/46/46 47/47/47
f 48/48/48 49/49/49 50/50/50
f 51/51/51 52/52/52 53/53/53
f 49/49/49 48/48/48 54/54/54
f 49/49/49 55/55/55 50/50/50
f 56/56/56 57/57/57 58/58/58
f 59/59/59 57/57/57 60/60/60
f 51/51/51 61/61/61 56/56/56
f 59/59/59 60/60/60 52/52/52
f 53/53/53 62/62/62 51/51/51
f 52/52/52 62/62/62 53/53/53
f 61/61/61 60/60/60 57/57/57
f 63/63/63 42/42/42 64/64/64
f 43/43/43 65/65/65 44/44/44
f 18/18/18 16/16/16 41/41/41
f 36/36/36 24/24/24 37/37/37
f 66/66/66 47/47/47 67/67/67
f 45/45/45 68/68/68 46/46/46
f 59/59/59 56/56/56 58/58/58
f 1/1/1 69/69/69 2/2/2
f 70/70/70 4/4/4 6/6/6
f 8/8/8 71/71/71 9/9/9
f 11/11/11 72/72/72 8/8/8
f 13/13/13 73/73/73 11/11/11
f 15/15/15 74/74/74 13/13/13
f 15/15/15 75/75/75 76/76/76
f 17/17/17 18/18/18 75/75/75
f 77/77/77 71/71/71 78/78/78
f 79/79/79 80/80/80 81/81/81
f 77/77/77 70/70/70 2/2/2
f 82/82/82 83/83/83 79/79/79
f 84/84/84 85/85/85 86/86/86
f 28/28/28 87/87/87 82/82/82
f 80/80/80 84/84/84 81/81/81
f 88/88/88 31/31/31 4/4/4
f 83/83/83 33/33/33 80/80/80
f 35/35/35 85/85/85 89/89/89
f 29/29/29 36/36/36 87/87/87
f 33/33/33 89/89/89 80/80/80
f 87/87/87 34/34/34 83/83/83
f 77/77/77 88/88/88 70/70/70
f 88/88/88 86/86/86 85/85/85
f 70/70/70 6/6/6 2/2/2
f 81/81/81 73/73/73 74/74/74
f 69/69/69 9/9/9 71/71/71
f 76/76/76 81/81/81 74/74/74
f 72/72/72 78/78/78 71/71/71
f 82/82/82 76/76/76 75/75/75
f 73/73/73 86/86/86 72/72/72
f 69/69/69 77/77/77 2/2/2
f 28/28/28 75/75/75 41/41/41
f 90/90/90 42/42/42 44/44/44
f 46/46/46 91/91/91 47/47/47
f 48/48/48 50/50/50 92/92/92
f 93/93/93 94/94/94 95/95/95
f 92/92/92 54/54/54 48/48/48
f 92/92/92 50/50/50 55/55/55
f 96/96/96 97/97/97 98/98/98
f 95/95/95 96/96/96 98/98/98
f 99/99/99 93/93/93 97/97/97
f 95/95/95 94/94/94 100/100/100
f 101/101/101 93/93/93 102/102/102
f 102/102/102 94/94/94 101/101/101
f 99/99/99 100/100/100 102/102/102
f 103/103/103 64/64/64 42/42/42
f 90/90/90 44/44/44 65/65/65
f 18/18/18 41/41/41 75/75/75
f 36/36/36 37/37/37 87/87/87
f 104/104/104 67/67/67 47/47/47
f 91/91/91 46/46/46 68/68/68
f 95/95/95 97/97/97 93/93/93
f 4/4/4 32/32/32 5/5/5
f 7/7/7 10/10/10 8/8/8
f 10/10/10 12/12/12 11/11/11
f 12/12/12 14/14/14 13/13/13
f 14/14/14 40/40/40 15/15/15
f 15/15/15 40/40/40 16/16/16
f 19/19/19 39/39/39 7/7/7
f 20/20/20 30/30/30 21/21/21
f 23/23/23 20/20/20 22/22/22
f 25/25/25 38/38/38 26/26/26
f 28/28/28 23/23/23 24/24/24
f 25/25/25 27/27/27 21/21/21
f 31/31/31 26/26/26 32/32/32
f 22/22/22 21/21/21 33/33/33
f 26/26/26 31/31/31 35/35/35
f 27/27/27 35/35/35 33/33/33
f 24/24/24 22/22/22 34/34/34
f 32/32/32 39/39/39 19/19/19
f 32/32/32 26/26/26 38/38/38
f 12/12/12 25/25/25 30/30/30
f 3/3/3 7/7/7 9/9/9
f 40/40/40 14/14/14 30/30/30
f 10/10/10 7/7/7 39/39/39
f 40/40/40 20/20/20 23/23/23
f 12/12/12 10/10/10 38/38/38
f 16/16/16 23/23/23 28/28/28
f 42/42/42 63/63/63 43/43/43
f 105/105/105 47/47/106 46/46/46
f 66/66/66 45/45/45 47/47/47
f 51/51/51 59/59/59 52/52/52
f 56/56/56 61/61/61 57/57/57
f 59/59/59 58/58/58 57/57/57
f 51/51/51 62/62/62 61/61/61
f 52/52/52 60/60/60 62/62/62
f 61/61/61 62/62/62 60/60/60
f 59/59/59 51/51/51 56/56/56
f 70/70/70 88/88/88 4/4/4
f 8/8/8 72/72/72 71/71/71
f 11/11/11 73/73/73 72/72/72
f 13/13/13 74/74/74 73/73/73
f 15/15/15 76/76/76 74/74/74
f 15/15/15 17/17/17 75/75/75
f 77/77/77 69/69/69 71/71/71
f 79/79/79 83/83/83 80/80/80
f 82/82/82 87/87/87 83/83/83
f 84/84/84 89/89/89 85/85/85
f 28/28/28 29/29/29 87/87/87
f 80/80/80 89/89/89 84/84/84
f 88/88/88 85/85/85 31/31/31
f 83/83/83 34/34/34 33/33/33
f 35/35/35 31/31/31 85/85/85
f 33/33/33 35/35/35 89/89/89
f 87/87/87 37/37/37 34/34/34
f 77/77/77 78/78/78 88/88/88
f 88/88/88 78/78/78 86/86/86
f 81/81/81 84/84/84 73/73/73
f 69/69/69 1/1/1 9/9/9
f 76/76/76 79/79/79 81/81/81
f 72/72/72 86/86/86 78/78/78
f 82/82/82 79/79/79 76/76/76
f 73/73/73 84/84/84 86/86/86
f 28/28/28 82/82/82 75/75/75
f 90/90/90 103/103/103 42/42/42
f 104/104/104 47/47/47 91/91/91
f 93/93/93 101/101/101 94/94/94
f 96/96/96 99/99/99 97/97/97
f 95/95/95 100/100/100 96/96/96
f 99/99/99 102/102/102 93/93/93
f 102/102/102 100/100/100 94/94/94
f 99/99/99 96/96/96 100/100/100
f 95/95/95 98/98/98 97/97/97
